<svg width="66" height="58" fill="none" xmlns="http://www.w3.org/2000/svg"><path fill-rule="evenodd" clip-rule="evenodd" d="M18.974 53.789c2 .466 4.068.92 6.505.31 1.15-.288 1.795-.526 2.745-.999.52-.259.723-.41 1.292-.643.569-.233 1.052-.15 1.461-.346l-4.352 4.169.706.647c1.226-.84 1.694-1.23 2.578-2.4.584-.77 1.516-2.158 2.746-2.158.645 0 1.904 1.858 2.288 2.359.975 1.271 1.089 1.296 2.23 2.288l.996-.652-.093-.123c-.876-.234-3.358-3.218-4.26-4.001 1.849 0 3.647 1.596 5.344 2.014 2.74.675 3.61.051 6.532.051-.437-1.635-5.346-3.356-8.003-3.356h-.129c-1.392 0-4.825.693-5.163.646l-5.661-.902-.147.127c-3.298 0-5.84 1.426-7.615 2.969zm14.971-3.227c4.168 0 9.88-3.85 10.713-6.97-4.895.407-8.86 3.467-10.713 6.97zm-15.874 1.162c1.82 0 6.669-1.195 6.97-2.324-.775-.064-1.89-.7-2.968-.775a46.953 46.953 0 00-3.486-.128c-1.848 0-5.758 1.116-6.453 2.065 1.208.64 2.928 1.162 4.775 1.162h1.162zm1.678-4.905c0-4.66-3.51-9.346-6.583-10.971 0 2.698.998 5.048 2.091 6.686.804 1.203 3.072 3.954 4.492 4.285zm25.554.387c3.253-1.721 6.733-6.016 6.841-10.842-1.859.983-3.469 2.561-4.622 4.284-.745 1.115-2.592 4.954-2.219 6.558zm1.293.516c1.98.462 4.614 1.212 7.045.721 1.528-.308 5.562-1.276 5.862-2.399-1.26-.293-2.442-.774-4.001-.774h-1.55c-2.25 0-6.538 1.23-7.356 2.452zm-1.549 1.033c-.966 0-4.926.615-5.292 1.161.957.256 2.052 1.163 3.614 1.55 1.322.327 2.779.774 4.388.774 2.123 0 3.375-.87 4.905-.904-.332-1.242-5.516-2.581-7.615-2.581zM30.85 50.562c-.765-3.279-6.337-6.896-10.327-7.228.12 1.443 2.873 4.058 4.043 4.734.985.57 1.678 1.145 2.848 1.54.596.203 1.003.393 1.61.585.444.14 1.532.228 1.825.369zm-25.31-5.37c.51.758 2.672 1.754 3.73 2.038 1.719.461 2.765.75 5.058.75h.13c1.59 0 2.563-.645 3.871-.645-.208-.78-2.62-1.712-3.533-2.017-1.596-.532-2.913-.693-4.985-.693l-.142-.084-4.13.651zM48.53 1.773v.258c0 2.681.832 4.456 1.91 6.092.692 1.05 3.028 3.473 4.415 3.588-.196-.408-.683-2.624-.887-3.243-.353-1.067-.782-2.042-1.333-2.927-1.042-1.674-2.379-3.344-3.976-4.414-.067.29-.129.297-.129.646zm-37.301 9.164c.861.405 4.044-2.752 4.623-3.638 1.156-1.766 1.83-3.79 1.83-6.688-1.56.826-3.192 2.846-4.158 4.36-.495.777-2.68 5.147-2.295 5.966zm38.852 33.687c4.14 0 9.394-3.449 10.197-6.453-4.565 0-8.566 3.372-10.197 6.453zm-35.237-.516c-.703-3.015-5.972-6.712-9.81-6.712.383 1.643 2.53 3.57 3.765 4.496.697.525 1.764 1.162 2.668 1.462.63.21 3.042.593 3.377.754zm42.464-25.556c-.879-3.77-4.61-7.638-8.39-8.519.497 1.036.347 1.837 1.182 2.949.442.59 1.325 2.046 1.837 2.422 1.3.956 3.219 3.148 5.37 3.148zm-48.789-.645c1.006-.483 1.824-.545 2.918-1.213.934-.57 1.66-1.106 2.406-1.853 1.099-1.1 3.037-3.432 3.194-5.324-2.156.502-3.954 1.695-5.323 3.066-1.039 1.041-3.154 3.468-3.195 5.324zm50.984 8.131c1.13-.263 3.284-2.479 3.927-3.43.866-1.284 1.881-3.528 1.881-5.605V16.1c-1.325.308-3.308 2.705-4.054 3.82-.983 1.469-1.754 3.73-1.754 6.118zm-3.486 11.617c1.251.6 5.03-1.519 5.81-2.063 1.236-.86 3.183-3.042 3.612-4.649h-.516c-1.272 0-4.569 1.731-5.387 2.358-2.16 1.657-2.112 2.252-3.52 4.354zM4 12.744c0 2.178 1.575 6.985 2.99 7.36l.624-4.133c.35-2.02-1.918-6.525-2.969-7.229C4.541 9.996 4 10.963 4 12.744zm54.212 4.388v.904c0 1.252.292 1.879.516 2.84 1.42-.952 3.227-5.024 3.227-7.616 0-1.06-.186-3.183-.774-3.614-.05.184-1.597 2.291-1.978 3.185-.464 1.089-.991 2.822-.991 4.301zm-4.905 17.554v1.42c0 1.164.435 1.996.516 2.968 1.408-.942 3.098-4.793 3.098-7.357l.113-.277-.759-3.724c-1.211.888-2.968 4.782-2.968 6.97zM.388 15.583c0 2.115.881 4.553 1.754 5.861.645.965 2.9 3.417 3.925 3.69 0-2.364-.792-4.672-1.654-6.219-.58-1.041-2.866-3.578-4.025-3.848v.516zm57.824 17.425c2.424-1.283 2.785-1.617 4.618-3.514.885-.917 2.352-3.939 2.352-5.779-3.144.733-6.65 5.446-6.97 9.293zM7.744 7.452V9.13c0 2.581.626 3.157 1.033 4.904.823-.55 2.065-3.988 2.065-5.55V6.42c0-1.595-.899-2.871-1.162-4.001-.73.535-1.936 3.665-1.936 5.034zm-.515 24.653c-.16-.333-.532-2.42-.826-3.176-.403-1.032-.85-1.868-1.473-2.658-.934-1.185-2.913-3.209-4.542-3.589.347.725.446 2.294.79 3.211.347.925.88 1.885 1.455 2.675.698.96 3.347 3.433 4.595 3.537zm1.935 4.905c-.416-1.785-2.288-3.52-3.45-4.682C4.476 31.091 2.023 30.382 0 29.91c.123 1.475 2.486 3.803 3.45 4.681.942.858 4.02 2.38 5.714 2.418zm45.95-28.396c0 1.801 1.004 5.383 1.936 6.066.547-2.345 1.291-2.642 1.291-6.066v-.258c0-2.063-.984-3.718-1.678-5.163-.772.565-1.549 3.914-1.549 5.42zM8.519 30.168c0 2.343.227 2.917.722 4.698.488 1.754 1.566 2.467 1.859 3.563h.258c.135-.577.646-2.137.646-2.71 0-1.57-.176-3.773-.605-4.946-.478-1.306-1.766-2.913-1.977-3.702h-.258c-.231.992-.645 1.768-.645 3.097zM6.97 25.65v1.163c0 .348.061.355.129.645 2.27-.606 4.646-5.611 4.646-9.035v-.387c0-.349-.061-.356-.129-.646-2.269 1.52-4.646 4.528-4.646 8.261zm51.498 2.583c0-2.981.059-4.163-.988-6.24-.576-1.14-2.253-3.65-3.4-3.957 0 2.858-.215 3.966.904 6.195.687 1.37 2.174 3.308 3.484 4.002z" fill="#fff"/><path d="M21.681 14.852h5.223l6.854 17.256 3.926-9.48c1.483-3.562 2.459-6.156 2.928-7.776h5.698v.785c-.927.016-1.57.178-1.942.473-.365.29-.55.83-.55 1.614 0 .106.005.234.016.373l1.216 13.014c.147 1.598.398 2.622.742 3.084.349.457 1.047.702 2.099.73v.784h-7.857v-.784c.801-.023 1.363-.184 1.696-.49.327-.3.49-.896.49-1.776 0-.172-.01-.356-.027-.551l-1.249-12.97c-1.82 3.306-3.118 5.89-3.898 7.749l-4.008 9.59h-.72l-7.475-18.981-.545 5.85c-.245 2.644-.365 4.737-.365 6.28 0 3.434.84 5.204 2.524 5.299v.785h-7.219v-.785c.742-.173 1.336-.657 1.772-1.459.436-.796.883-2.22 1.347-4.27a50.854 50.854 0 001.014-6.568l.404-4.336c.01-.206.016-.429.016-.668 0-.774-.153-1.291-.447-1.559-.3-.267-.856-.412-1.663-.428v-.785z" fill="#fff"/></svg>