<svg width="213" height="18" fill="none" xmlns="http://www.w3.org/2000/svg"><path d="M20.179 1.976l-2.107.484v13.902l2.107.436v1.042h-6.03v-1.042l2.082-.436V3.72l-5.183 9.712-1.332.097-5.038-9.833v12.666l2.107.436v1.042H.948v-1.042l2.083-.436V2.46L.948 2.097V1.056l4.53-.121 5.11 10.341 5.28-10.22 4.31-.121v1.041zm6.475 14.822v1.042h-5.958v-1.042l1.865-.411L28.325.959l2.01-.073 5.45 15.5 1.865.412v1.042h-6.297v-1.042l2.228-.436-1.09-3.293h-6.903l-1.21 3.318 2.276.411zm-.605-5.183h6.006l-2.858-8.84-3.148 8.84zm25.06 1.647c0 1.357-.493 2.463-1.478 3.318-.984.84-2.543 1.26-4.674 1.26h-6.733v-1.042l2.083-.436V2.485l-2.083-.388V1.056L42.22.935h3.003c1.744 0 3.052.363 3.924 1.09.872.71 1.308 1.727 1.308 3.051 0 1.033-.283 1.897-.848 2.592-.565.694-1.477 1.186-2.737 1.477 1.373.145 2.422.573 3.149 1.284.727.694 1.09 1.639 1.09 2.833zM44.812 2.388h-2.52V8.49h1.914c2.826 0 4.239-1.05 4.239-3.148 0-.985-.307-1.72-.92-2.204-.614-.501-1.518-.751-2.713-.751zm0 13.999c1.437 0 2.502-.283 3.197-.848.71-.565 1.065-1.364 1.065-2.398 0-1-.314-1.784-.944-2.35-.63-.58-1.518-.871-2.664-.871h-3.173v6.467h2.519zm19.356-2.52h1.211v3.973H53.15v-1.042l2.082-.436V2.485l-2.083-.388V1.056l4.045-.121h7.896V4.76h-1.211l-.388-2.349h-6.273v6.055h6.104V9.92h-6.104v6.442h6.588l.363-2.494zm8.094 2.931v1.042h-5.813v-1.042l1.89-.411 4.916-7.145-4.65-6.854-1.841-.29V1.055l6.176-.12v1.041l-2.01.412 3.657 5.522 3.681-5.474-2.01-.339V1.056l5.716-.121v1.041l-1.938.509-4.553 6.539 5.013 7.387 1.793.387v1.042h-6.297v-1.042l2.228-.411-4.045-6.031-4.02 6.006 2.107.436zm19.072 1.042v-1.042l2.422-.436V2.412h-3.803l-.436 2.664h-1.21V.935h12.86v4.141h-1.211l-.412-2.664h-3.826v13.95l2.421.436v1.042h-6.805zm11.129 0v-1.042l2.083-.436V2.485l-2.083-.388V1.056l4.141-.121h2.834c1.825 0 3.205.379 4.142 1.138.936.759 1.404 1.857 1.404 3.294 0 1.227-.355 2.252-1.065 3.076-.711.807-1.793 1.332-3.246 1.574.662.178 1.171.476 1.526.896.371.404.727.945 1.066 1.623l1.889 3.85 1.574.412v1.042h-2.979l-2.228-4.771c-.307-.679-.606-1.211-.896-1.599a2.25 2.25 0 00-1.042-.823c-.42-.162-1.001-.243-1.744-.243l-1.307.025v5.91l2.494.46v1.04h-6.563zm6.733-15.428h-2.664v6.563h1.937c1.437 0 2.543-.29 3.318-.871.775-.598 1.163-1.47 1.163-2.616 0-.985-.315-1.744-.945-2.277-.629-.533-1.566-.799-2.809-.799zm13.769 14.386v1.042h-5.958v-1.042l1.865-.411L124.636.959l2.01-.073 5.45 15.5 1.865.412v1.042h-6.298v-1.042l2.229-.436-1.09-3.293h-6.903l-1.211 3.318 2.277.411zm-.606-5.183h6.007l-2.858-8.84-3.149 8.84zM141.752.935c1.437 0 2.721.298 3.851.896 1.147.581 2.051 1.477 2.713 2.688.662 1.211.993 2.745.993 4.602 0 1.905-.347 3.512-1.042 4.82-.678 1.291-1.614 2.268-2.809 2.93-1.195.646-2.559.969-4.093.969h-6.83v-1.042l2.083-.436V2.485l-2.083-.388V1.056l4.553-.121h2.664zm-.315 15.427c.743 0 1.454-.12 2.132-.363a5.077 5.077 0 001.84-1.162c.549-.55.977-1.276 1.284-2.18.323-.904.484-2.027.484-3.367 0-1.308-.153-2.397-.46-3.27-.29-.887-.702-1.59-1.235-2.106a4.475 4.475 0 00-1.744-1.139 5.746 5.746 0 00-2.034-.363h-3.1v13.95h2.833zm21.502-2.494h1.211v3.972h-12.231v-1.042l2.083-.436V2.485l-2.083-.388V1.056l4.045-.121h7.895V4.76h-1.211l-.387-2.349h-6.273v6.055h6.103V9.92h-6.103v6.442h6.588l.363-2.494zm19.213-.34h1.211v4.312H171.81v-1.042l2.083-.436V2.485l-2.083-.388V1.056l6.443-.121v1.041l-2.374.484v13.902h5.861l.412-2.833zm4.003 4.312v-1.042l2.422-.436V2.412h-3.803l-.436 2.664h-1.211V.935h12.861v4.141h-1.211l-.412-2.664h-3.827v13.95l2.422.436v1.042h-6.805zM204.501.935c1.437 0 2.721.298 3.851.896 1.146.581 2.05 1.477 2.712 2.688.662 1.211.993 2.745.993 4.602 0 1.905-.347 3.512-1.041 4.82-.678 1.291-1.615 2.268-2.809 2.93-1.195.646-2.56.969-4.094.969h-6.83v-1.042l2.083-.436V2.485l-2.083-.388V1.056l4.554-.121h2.664zm-.315 15.427c.743 0 1.453-.12 2.131-.363a5.073 5.073 0 001.841-1.162c.549-.55.977-1.276 1.284-2.18.323-.904.484-2.027.484-3.367 0-1.308-.153-2.397-.46-3.27-.291-.887-.702-1.59-1.235-2.106a4.475 4.475 0 00-1.744-1.139 5.748 5.748 0 00-2.035-.363h-3.1v13.95h2.834z" fill="#D9D9D9"/></svg>