<svg width="19" height="20" fill="none" xmlns="http://www.w3.org/2000/svg"><circle cx="9.5" cy="9.603" r="9" stroke="#F2F5F7"/><path fill-rule="evenodd" clip-rule="evenodd" d="M9.43 14.929a.407.407 0 01-.54 0c-.14-.124-3.461-3.077-3.461-6.241 0-2.115 1.674-3.835 3.732-3.835 2.058 0 3.732 1.72 3.732 3.835 0 3.164-3.32 6.117-3.462 6.24zM9.16 5.7c-1.6 0-2.902 1.34-2.902 2.987 0 2.29 2.135 4.59 2.902 5.342.768-.753 2.904-3.055 2.904-5.342C12.064 7.04 10.76 5.7 9.16 5.7zm0 4.696c-.914 0-1.658-.76-1.658-1.696 0-.936.744-1.697 1.659-1.697s1.659.761 1.659 1.697c0 .935-.744 1.696-1.66 1.696zm0-2.544a.84.84 0 00-.829.848.84.84 0 00.83.848.84.84 0 00.83-.848.84.84 0 00-.83-.848z" fill="#F2F5F7"/></svg>