<svg width="328" height="382" fill="none" xmlns="http://www.w3.org/2000/svg"><path d="M78.332 247.27l-7.891 2.109v52.994l7.891 1.82v5.079H53.407v-5.079l7.891-1.82v-46.574L42.34 291.831l-6.352.384-18.381-36.512v46.765l7.987 1.725v5.079H1.728v-5.079l7.891-1.82v-52.994l-7.891-1.63v-5.079l19.92-.479 18.574 38.907L59.47 242.67l18.862-.479v5.079zm26.121 56.923v5.079H80.297v-5.079l6.737-1.725 22.616-60.181 10.105-.287 21.364 60.468 6.737 1.725v5.079h-25.888v-5.079l8.084-1.725-3.849-11.787h-25.888l-4.235 11.787 8.373 1.725zm-1.828-20.507h21.557l-10.202-32.487-11.355 32.487zm99.664 7.283c0 5.558-2.053 9.998-6.159 13.32-4.042 3.322-10.297 4.983-18.766 4.983h-27.428v-5.079l7.892-1.82v-52.994l-7.892-1.63v-5.079l17.323-.479h11.26c6.929 0 12.19 1.406 15.783 4.217 3.592 2.747 5.389 6.836 5.389 12.266 0 4.217-1.155 7.698-3.465 10.446-2.245 2.683-5.806 4.567-10.682 5.653 5.389.639 9.527 2.3 12.415 4.984 2.887 2.683 4.33 6.42 4.33 11.212zm-25.791-41.686h-8.854v22.328h6.544c5.004 0 8.854-.926 11.548-2.779 2.695-1.917 4.042-4.855 4.042-8.816 0-3.77-1.187-6.485-3.56-8.146-2.31-1.725-5.55-2.587-9.72-2.587zm0 52.898c5.068 0 8.95-.958 11.644-2.875 2.695-1.981 4.042-4.983 4.042-9.008 0-3.897-1.219-6.836-3.657-8.816-2.374-1.981-5.517-2.971-9.431-2.971h-11.452v23.67h8.854zm76.327-9.391h5.967l-.097 16.482h-49.08v-5.079l7.891-1.82v-52.994l-7.891-1.63v-5.079l17.515-.479h30.411v15.812h-5.871l-1.54-8.624h-22.808v22.136h23.097v6.996h-23.097v23.574h23.963l1.54-9.295zm33.413 11.403v5.079H262.66v-5.079l7.025-1.725 19.151-27.12-18.285-26.449-6.736-1.15v-5.079l25.695-.479v5.079l-7.41 1.725 13.473 19.933 13.569-19.741-7.314-1.438v-5.079l23.193-.479v5.079l-7.121 2.109L300 274.39l19.728 28.174 6.545 1.629v5.079h-26.177v-5.079l8.276-1.725-14.916-21.753-14.821 21.753 7.603 1.725zM8.731 381.09v-1.792l6.948-1.024v-39.169H3.842l-1.03 7.424H.819v-9.92h32.874v9.92h-2.059l-1.03-7.424H18.832v39.169l6.948 1.024v1.792H8.73zm28.939 0v-1.792l6.048-1.024v-38.785l-6.047-.768v-1.792l9.328-.32h8.17c4.674 0 8.213.981 10.614 2.944 2.402 1.92 3.603 4.715 3.603 8.384 0 3.329-1.008 6.059-3.024 8.193-1.972 2.09-4.953 3.413-8.942 3.968 2.016.426 3.538 1.258 4.568 2.496 1.03 1.195 2.037 2.816 3.023 4.864l5.34 10.88 4.374.96v1.792h-6.561l-5.983-12.8c-.858-1.877-1.716-3.349-2.573-4.416a6.666 6.666 0 00-3.153-2.368c-1.286-.512-3.045-.768-5.275-.768l-4.31.064v17.472l7.398 1.024v1.792H37.671zm17.113-41.985H46.87v19.265h5.854c4.289 0 7.591-.854 9.907-2.56 2.316-1.75 3.474-4.31 3.474-7.681 0-2.944-.965-5.184-2.895-6.72-1.887-1.536-4.696-2.304-8.427-2.304zm35.878 40.193v1.792H75.415v-1.792l5.532-.96 15.697-41.665 3.152-.128 14.797 41.793 5.596.96v1.792h-15.825v-1.792l6.755-1.024-3.474-10.112H87.638l-3.731 10.176 6.754.96zm-2.187-13.568h18.399l-8.814-25.985-9.585 25.985zm52.038-29.121c3.559 0 6.819.768 9.778 2.304 3.002 1.536 5.404 3.904 7.205 7.104 1.801 3.158 2.702 7.233 2.702 12.225 0 5.035-.922 9.259-2.766 12.672-1.802 3.371-4.268 5.91-7.398 7.616-3.131 1.707-6.605 2.56-10.422 2.56h-17.82v-1.792l6.047-1.024v-38.721l-6.047-.832v-1.792l10.808-.32h7.913zm-.837 41.985c3.002 0 5.79-.661 8.363-1.984 2.616-1.365 4.718-3.52 6.305-6.464 1.63-2.987 2.444-6.848 2.444-11.584 0-4.651-.772-8.406-2.316-11.265-1.501-2.858-3.516-4.928-6.047-6.208-2.487-1.323-5.168-1.984-8.041-1.984h-9.392v39.489h8.684zm58.458-7.232h1.995v9.728h-31.973v-1.792l6.047-1.024v-38.721l-6.047-.832v-1.792l9.199-.32h21.937v9.344h-1.994l-.965-6.848h-18.978v17.985h17.434v2.432h-17.434v19.072h19.814l.965-7.232zm51.843-.576h1.994v10.304h-29.85v-1.792l6.047-1.024v-38.721l-6.047-.832v-1.792l16.083-.32v1.792l-6.883 1.088v39.105h17.691l.965-7.808zm9.86 10.304v-1.792l6.948-1.024v-39.169h-11.837l-1.029 7.424h-1.994v-9.92h32.873v9.92h-2.059l-1.029-7.424h-11.773v39.169l6.948 1.024v1.792h-17.048zm47.66-44.481c3.56 0 6.819.768 9.779 2.304 3.002 1.536 5.403 3.904 7.205 7.104 1.801 3.158 2.702 7.233 2.702 12.225 0 5.035-.922 9.259-2.767 12.672-1.801 3.371-4.267 5.91-7.398 7.616-3.13 1.707-6.604 2.56-10.421 2.56h-17.82v-1.792l6.047-1.024v-38.721l-6.047-.832v-1.792l10.808-.32h7.912zm-.836 41.985c3.002 0 5.79-.661 8.363-1.984 2.616-1.365 4.718-3.52 6.305-6.464 1.629-2.987 2.444-6.848 2.444-11.584 0-4.651-.772-8.406-2.316-11.265-1.501-2.858-3.517-4.928-6.047-6.208-2.487-1.323-5.168-1.984-8.041-1.984h-9.393v39.489h8.685z" fill="#fff"/><path fill-rule="evenodd" clip-rule="evenodd" d="M111.892 202.495c7.582 1.766 15.424 3.49 24.661 1.175 4.359-1.092 6.803-1.992 10.404-3.786 1.971-.981 2.743-1.554 4.9-2.438 2.155-.884 3.987-.568 5.538-1.312l-16.498 15.804 2.675 2.453c4.647-3.183 6.422-4.661 9.775-9.095 2.212-2.924 5.744-8.183 10.409-8.183 2.442 0 7.216 7.041 8.673 8.941 3.696 4.82 4.126 4.913 8.452 8.673l3.775-2.471-.35-.465c-3.321-.886-12.733-12.2-16.147-15.168 7.005 0 13.821 6.051 20.255 7.635 10.386 2.558 13.682.194 24.76.194-1.655-6.198-20.263-12.721-30.336-12.721h-.489c-5.276 0-18.292 2.625-19.572 2.446l-21.461-3.418-.557.482c-12.502 0-22.139 5.405-28.867 11.254zm56.755-12.232c15.799 0 37.453-14.596 40.611-26.422-18.557 1.545-33.585 13.144-40.611 26.422zm-60.181 4.403c6.897 0 25.279-4.528 26.421-8.807-2.938-.244-7.164-2.653-11.249-2.94-4.6-.323-8.483-.485-13.215-.485-7.008 0-21.828 4.231-24.464 7.829 4.581 2.424 11.098 4.403 18.103 4.403h4.404zm6.361-18.593c0-17.665-13.306-35.426-24.953-41.589 0 10.229 3.782 19.138 7.927 25.345 3.045 4.562 11.647 14.991 17.026 16.244zm96.878 1.469c12.331-6.525 25.525-22.806 25.932-41.1-7.046 3.728-13.15 9.709-17.519 16.241-2.827 4.225-9.828 18.78-8.413 24.859zm4.895 1.956c7.51 1.75 17.492 4.595 26.708 2.734 5.791-1.169 21.083-4.837 22.22-9.094-4.775-1.112-9.256-2.936-15.168-2.936h-5.871c-8.536 0-24.788 4.665-27.889 9.296zm-5.871 3.915c-3.662 0-18.674 2.331-20.061 4.403 3.627.969 7.78 4.405 13.7 5.872 5.013 1.241 10.533 2.935 16.635 2.935 8.046 0 12.795-3.296 18.593-3.425-1.258-4.71-20.909-9.785-28.868-9.785h.001zm-53.823 6.849c-2.896-12.428-24.018-26.141-39.143-27.4.455 5.472 10.889 15.383 15.324 17.947 3.735 2.159 6.363 4.339 10.795 5.841 2.259.765 3.804 1.487 6.104 2.214 1.683.532 5.808.865 6.92 1.398zM60.96 169.907c1.937 2.875 10.135 6.649 14.146 7.725 6.514 1.748 10.481 2.845 19.173 2.845h.489c6.027 0 9.719-2.447 14.679-2.447-.791-2.96-9.937-6.49-13.395-7.644-6.048-2.019-11.042-2.631-18.898-2.631l-.54-.315-15.653 2.466v.001zM223.938 5.313v.978c0 10.165 3.152 16.895 7.239 23.096 2.621 3.976 11.477 13.163 16.735 13.6-.743-1.547-2.586-9.945-3.362-12.294-1.336-4.045-2.965-7.738-5.053-11.094-3.949-6.346-9.016-12.678-15.07-16.732-.256 1.097-.489 1.124-.489 2.446zM82.535 40.052c3.265 1.539 15.33-10.43 17.527-13.788 4.379-6.696 6.937-14.368 6.937-25.355-5.917 3.132-12.104 10.79-15.763 16.53-1.877 2.946-10.162 19.512-8.7 22.613zm147.274 127.704c15.692 0 35.612-13.076 38.653-24.465-17.305 0-32.473 12.783-38.653 24.465zm-133.574-1.958c-2.663-11.43-22.635-25.443-37.185-25.443 1.45 6.227 9.593 13.529 14.27 17.045 2.644 1.987 6.69 4.402 10.116 5.541 2.384.792 11.53 2.249 12.8 2.857zM257.21 68.92c-3.329-14.29-17.471-28.954-31.804-32.293 1.885 3.928 1.317 6.963 4.48 11.177 1.676 2.234 5.026 7.755 6.966 9.181 4.93 3.625 12.201 11.935 20.358 11.935zM72.26 66.474c3.816-1.831 6.916-2.063 11.061-4.596 3.544-2.165 6.292-4.194 9.121-7.026 4.168-4.171 11.514-13.01 12.11-20.182-8.175 1.905-14.991 6.427-20.178 11.625C80.435 50.24 72.416 59.44 72.26 66.474zm193.267 30.824c4.284-.998 12.451-9.396 14.886-13.003 3.284-4.866 7.132-13.375 7.132-21.247v-3.424c-5.022 1.17-12.541 10.257-15.367 14.48-3.728 5.57-6.651 14.142-6.651 23.194zm-13.212 44.036c4.745 2.277 19.067-5.757 22.029-7.818 4.683-3.258 12.063-11.533 13.689-17.625h-1.957c-4.82 0-17.317 6.563-20.418 8.94-8.19 6.278-8.006 8.533-13.343 16.503zM55.133 46.902c0 8.256 5.969 26.478 11.335 27.904l2.365-15.672c1.33-7.653-7.27-24.732-11.254-27.4-.395 4.751-2.446 8.418-2.446 15.168zm205.501 16.636v3.425c0 4.747 1.109 7.124 1.957 10.765 5.384-3.606 12.232-19.044 12.232-28.868 0-4.022-.706-12.067-2.936-13.7-.186.698-6.051 8.686-7.496 12.074-1.76 4.126-3.757 10.694-3.757 16.304zm-18.593 66.543v5.382c0 4.414 1.651 7.569 1.957 11.253 5.336-3.573 11.743-18.172 11.743-27.889l.431-1.053-2.877-14.115c-4.593 3.365-11.254 18.126-11.254 26.421v.001zM41.435 57.666c0 8.017 3.341 17.26 6.651 22.217 2.443 3.659 10.996 12.954 14.878 13.99 0-8.964-3.001-17.715-6.27-23.576-2.2-3.948-10.863-13.563-15.259-14.587v1.956zm219.2 66.054c9.19-4.863 10.559-6.13 17.504-13.32 3.358-3.477 8.917-14.933 8.917-21.909-11.917 2.777-25.208 20.644-26.421 35.229zM69.324 26.841v6.361c0 9.786 2.371 11.97 3.915 18.593 3.118-2.089 7.828-15.118 7.828-21.04v-7.828c0-6.048-3.406-10.884-4.404-15.167-2.77 2.03-7.339 13.892-7.339 19.082zm-1.956 93.454c-.606-1.263-2.014-9.176-3.131-12.037-1.528-3.913-3.223-7.083-5.581-10.076-3.541-4.493-11.044-12.166-17.22-13.605 1.317 2.747 1.693 8.694 2.996 12.171 1.315 3.508 3.339 7.147 5.517 10.141 2.644 3.636 12.685 13.012 17.419 13.406zm7.338 18.593c-1.576-6.763-8.673-13.34-13.08-17.745-4.693-4.689-13.986-7.378-21.66-9.166.466 5.591 9.425 14.415 13.081 17.744 3.57 3.251 15.238 9.024 21.659 9.167zM248.892 31.245c0 6.83 3.804 20.406 7.339 22.996 2.072-8.891 4.893-10.017 4.893-22.996v-.979c0-7.817-3.732-14.092-6.361-19.571-2.926 2.144-5.871 14.839-5.871 20.55zM72.26 112.956c0 8.882.863 11.055 2.74 17.809 1.847 6.646 5.936 9.349 7.046 13.505h.978c.51-2.188 2.447-8.102 2.447-10.275 0-5.949-.665-14.3-2.293-18.747-1.81-4.95-6.695-11.044-7.493-14.035h-.979c-.877 3.763-2.446 6.702-2.446 11.743zM66.388 95.83v4.404c0 1.321.233 1.349.489 2.447 8.604-2.297 17.614-21.27 17.614-34.25v-1.468c0-1.321-.234-1.349-.49-2.446-8.6 5.76-17.613 17.162-17.613 31.314zm195.226 9.787c0-11.3.221-15.782-3.749-23.652-2.182-4.326-8.538-13.84-12.887-15.002 0 10.833-.816 15.036 3.425 23.486 2.605 5.19 8.244 12.539 13.211 15.168z" fill="#fff"/><path d="M122.158 54.894h19.8l25.981 65.414 14.882-35.936c5.622-13.504 9.321-23.337 11.1-29.478h21.598v2.975c-3.513.063-5.953.675-7.358 1.793-1.385 1.098-2.088 3.145-2.088 6.12 0 .4.021.886.062 1.414l4.609 49.335c.559 6.056 1.51 9.939 2.811 11.69 1.324 1.73 3.969 2.659 7.958 2.765v2.975h-29.784v-2.975c3.038-.085 5.167-.697 6.428-1.857 1.24-1.14 1.86-3.398 1.86-6.731 0-.655-.041-1.351-.103-2.09l-4.733-49.166c-6.904 12.534-11.823 22.325-14.779 29.373l-15.191 36.358h-2.729l-28.337-71.956-2.067 22.177c-.93 10.024-1.384 17.957-1.384 23.803 0 13.02 3.182 19.73 9.569 20.089v2.975h-27.366v-2.975c2.811-.655 5.064-2.49 6.718-5.529 1.653-3.017 3.348-8.419 5.105-16.185 1.757-7.786 3.038-16.08 3.844-24.9l1.53-16.437c.041-.781.063-1.625.063-2.532 0-2.934-.58-4.896-1.696-5.909-1.136-1.013-3.245-1.562-6.304-1.624v-2.975l.001-.001z" fill="#fff"/></svg>