<svg width="19" height="20" fill="none" xmlns="http://www.w3.org/2000/svg"><circle cx="9.5" cy="9.603" r="9" stroke="#F2F5F7"/><path fill-rule="evenodd" clip-rule="evenodd" d="M6.057 15.031a.424.424 0 01-.28-.106L4.38 13.697c-.491-.489-.39-1.325.272-2.51.56-1.004 1.469-2.156 2.557-3.242 1.877-1.878 3.803-3.091 4.907-3.091.4 0 .64.155.77.286l1.258 1.41a.425.425 0 01-.04.603l-2.12 1.838a.424.424 0 01-.468.06l-1.424-.713-2.537 2.537.711 1.423a.424.424 0 01-.058.467l-1.828 2.12a.426.426 0 01-.322.147zm6.058-9.33c-.728 0-2.441.976-4.308 2.843-1.034 1.033-1.891 2.118-2.415 3.055-.569 1.02-.494 1.419-.442 1.47l1.066.937 1.364-1.582-.722-1.444a.425.425 0 01.08-.49l2.97-2.968a.424.424 0 01.489-.08l1.444.722 1.582-1.372-.928-1.044c-.04-.032-.093-.047-.18-.047z" fill="#F2F5F7"/></svg>