<svg width="59" height="57" fill="none" xmlns="http://www.w3.org/2000/svg"><g filter="url(#filter0_d)"><rect x="4.06" y=".165" width="50" height="48.835" rx="24.418" fill="#1BB80D"/></g><path fill-rule="evenodd" clip-rule="evenodd" d="M27.803 20.542c.572-.77.777-1.583.13-2.3-1.45-2.03-2.427-3.285-3.039-3.89-1.163-1.15-3.077-.994-4.085 0-.541.533-.725.716-1.28 1.28-3.096 3.098-1.208 9.646 3.81 14.67 5.018 5.022 11.566 6.911 14.668 3.807a42.08 42.08 0 001.29-1.29c.987-1.045 1.137-2.874-.007-4.063-.587-.61-1.784-1.538-3.9-3.051-.647-.58-1.416-.454-2.12.008-.339.222-.586.447-1.051.913l-.846.846c-.11.111-1.623-.646-3.09-2.115-1.47-1.47-2.226-2.982-2.115-3.093l.846-.847c.147-.148.218-.22.309-.314a6.03 6.03 0 00.48-.561zm5.13 8.49l.846-.846c.256-.256.422-.414.557-.523 1.853 1.331 2.927 2.168 3.365 2.624.263.273.222.772-.006 1.014a39.34 39.34 0 01-1.233 1.234c-2.006 2.006-7.292.482-11.563-3.794-4.272-4.276-5.796-9.562-3.805-11.554a92.33 92.33 0 011.262-1.263c.2-.197.745-.242.989-.001.471.465 1.345 1.585 2.631 3.376a4.7 4.7 0 01-.25.282c-.075.078-.137.14-.272.276l-.846.846c-1.437 1.438-.213 3.885 2.114 6.214 2.326 2.328 4.773 3.554 6.211 2.115zm-2.042-15.407c4.77.578 8.553 4.36 9.13 9.131l-2.179.363a8.279 8.279 0 00-7.314-7.314l.363-2.18zm-.727 4.361a6.07 6.07 0 015.497 5.497l-2.187.365a3.862 3.862 0 00-3.674-3.675l.364-2.187z" fill="#fff"/><defs><filter id="filter0_d" x=".06" y=".165" width="58" height="56.835" filterUnits="userSpaceOnUse" color-interpolation-filters="sRGB"><feFlood flood-opacity="0" result="BackgroundImageFix"/><feColorMatrix in="SourceAlpha" values="0 0 0 0 0 0 0 0 0 0 0 0 0 0 0 0 0 0 127 0"/><feOffset dy="4"/><feGaussianBlur stdDeviation="2"/><feColorMatrix values="0 0 0 0 0 0 0 0 0 0 0 0 0 0 0 0 0 0 0.25 0"/><feBlend in2="BackgroundImageFix" result="effect1_dropShadow"/><feBlend in="SourceGraphic" in2="effect1_dropShadow" result="shape"/></filter></defs></svg>