<svg width="37" height="38" fill="none" xmlns="http://www.w3.org/2000/svg"><circle cx="18.5" cy="18.602" r="18" stroke="#fff"/><path d="M21.51 20.2c0 1.089-.315 1.923-.946 2.503-.623.58-1.507.87-2.653.87-1.146 0-2.059-.38-2.74-1.138-.672-.767-1.009-1.794-1.009-3.083v-1.214c0-1.246.34-2.249 1.02-3.008.688-.766 1.598-1.15 2.73-1.15 1.166 0 2.058.298 2.674.892.623.587.934 1.415.934 2.482h-1.675c0-.688-.165-1.178-.494-1.472-.33-.3-.81-.451-1.44-.451-.659 0-1.174.243-1.547.73-.365.487-.548 1.153-.548 1.998v1.257c0 .845.187 1.508.559 1.987.372.48.884.72 1.536.72.637 0 1.117-.143 1.44-.43.322-.293.483-.791.483-1.493h1.676zm2.857-1.428a6.976 6.976 0 00-.806-3.31 6.246 6.246 0 00-2.277-2.448 5.944 5.944 0 00-3.223-.924 6.083 6.083 0 00-3.18.88 6.254 6.254 0 00-2.298 2.428 6.969 6.969 0 00-.838 3.373 7.04 7.04 0 00.827 3.373 6.412 6.412 0 002.3 2.45 6.046 6.046 0 003.19.891 5.94 5.94 0 003.19-.913 6.281 6.281 0 002.299-2.46 7.05 7.05 0 00.816-3.34zm-13.932 0c0-1.447.333-2.79.999-4.029a7.533 7.533 0 012.782-2.922 7.321 7.321 0 013.845-1.074c1.375 0 2.654.358 3.835 1.074a7.456 7.456 0 012.772 2.922 8.305 8.305 0 011.01 4.028c0 1.447-.337 2.79-1.01 4.029a7.637 7.637 0 01-2.76 2.943 7.25 7.25 0 01-3.847 1.074 7.286 7.286 0 01-3.845-1.074 7.638 7.638 0 01-2.772-2.932 8.326 8.326 0 01-1.01-4.04z" fill="#fff"/></svg>