<svg width="84" height="76" fill="none" xmlns="http://www.w3.org/2000/svg"><path d="M37.917 55.001h6.881a2.753 2.753 0 002.753-2.752V47.2c0-.152-.012-.303-.037-.454L45.602 35.28a2.743 2.743 0 00-2.716-2.3h-4.97a2.753 2.753 0 00-2.752 2.753v16.516A2.753 2.753 0 0037.917 55zm0-2.752v-4.13h6.881v4.13h-6.881zm4.97-16.516l1.606 9.634h-6.576v-9.634h4.97z" fill="#53A3EB"/><path d="M6.262 67.388h2.752v2.753H6.262v-2.753zm44.041 0h2.752v2.753h-2.752v-2.753z" fill="#fff"/><path d="M75.038 36.077l-2.636-6.942a4.522 4.522 0 00-.61-2.515L57.8 2.94c-.046-.09-.077-.184-.128-.275a5.338 5.338 0 00-1.006-1.188A5.092 5.092 0 0051.797.224a5.299 5.299 0 00-1.507.58L23.02 16.911 13.542 43.99h-.4a4.13 4.13 0 00-4.128 4.129v6.882a4.13 4.13 0 004.129 4.128h4.129v2.753H7.638a6.882 6.882 0 000 13.763H51.68a6.882 6.882 0 000-13.763h-9.634V59.13h9.634V46.743l-2.388-14.442a4.117 4.117 0 00-4.072-3.45H35.164a4.13 4.13 0 00-4.129 4.13v11.01h-3.742l4.94-19.757L51.59 12.617l12.542 18.815c.369.54.852.992 1.415 1.325l5.462 7.655-5.534 12.663-7.878 3.303 1.321 1.442a14.141 14.141 0 0010.401 4.563c7.667.06 13.936-6.097 14.012-13.763a13.665 13.665 0 00-8.294-12.543zM3.508 68.765a4.13 4.13 0 118.259 0 4.13 4.13 0 01-8.258 0zm52.301 0a4.13 4.13 0 11-8.258 0 4.13 4.13 0 018.258 0zm-9.599-4.13a6.744 6.744 0 000 8.259h-5.54V70.14h-2.753v2.753h-6.882V70.14h-2.753v2.753h-6.881V70.14h-2.753v2.753h-5.54a6.744 6.744 0 000-8.258h9.67v2.752h2.752v-2.752h8.258v2.752h2.752v-2.752h9.67zm-6.917-2.752H20.025V59.13h19.268v2.753zM33.788 32.98c0-.76.616-1.376 1.376-1.376H45.22c.672 0 1.246.487 1.357 1.15l2.35 14.104v9.52h-15.14V32.98zm-2.753 13.764v9.634H13.143c-.76 0-1.377-.617-1.377-1.377V48.12c0-.76.617-1.377 1.377-1.377h17.892zm-1.198-24.286l-5.382 21.533H16.46l8.826-25.222L51.69 3.167c.023-.013.048-.02.071-.033l.01.017a2.51 2.51 0 01.676-.275 2.655 2.655 0 012.302.563c.196.17.364.368.498.589l.192.323A2.626 2.626 0 0154.4 7.716L29.837 22.458zM53.953 11.2l1.864-1.12a5.33 5.33 0 001.868-1.926l11.737 19.871a1.77 1.77 0 01-2.999 1.885L53.953 11.2zm15.299 22.01a3.687 3.687 0 001.467-.754l1.753 4.616-.176.405-3.044-4.267zm.072 26.426a11.405 11.405 0 01-6.87-2.306l5.104-2.144 5.317-12.159 1.377-3.165.413-.929a10.91 10.91 0 015.918 9.692c-.075 6.147-5.112 11.072-11.259 11.01z" fill="#fff"/><path d="M14.52 48.12h5.505v2.752H14.52V48.12zm0 4.129h2.752V55H14.52v-2.75z" fill="#53A3EB"/></svg>