<svg width="77" height="77" fill="none" xmlns="http://www.w3.org/2000/svg"><path d="M75.715 11.999H61.62V1.749c0-.708-.574-1.282-1.281-1.282H16.773c-.708 0-1.282.574-1.282 1.281v17.939H1.397c-.708 0-1.282.574-1.282 1.281v52.536a1.281 1.281 0 002.563 0V22.25H15.49v52.535c0 .708.574 1.281 1.282 1.281h43.566a1.28 1.28 0 001.281-1.28V14.561h12.813v58.942a1.281 1.281 0 002.563 0V13.28c0-.707-.573-1.281-1.281-1.281zm-38.44 61.505h-5.126V61.972h5.125v11.532zm7.688 0h-5.126V61.972h5.125v11.532zm14.094 0H47.525V60.69c0-.707-.574-1.281-1.281-1.281H30.868c-.708 0-1.282.574-1.282 1.281v12.814H18.054V3.029h41.003v70.475z" fill="#fff"/><path d="M29.587 5.592h-7.689c-.707 0-1.28.574-1.28 1.282v7.688a1.28 1.28 0 001.28 1.281h7.689c.707 0 1.281-.574 1.281-1.281V6.874c0-.708-.574-1.282-1.281-1.282zm-1.282 7.688H23.18V8.155h5.125v5.125zM42.4 5.592h-7.688c-.708 0-1.281.574-1.281 1.282v7.688c0 .707.573 1.281 1.281 1.281H42.4c.708 0 1.282-.574 1.282-1.281V6.874c0-.708-.574-1.282-1.282-1.282zm-1.28 7.688h-5.126V8.155h5.126v5.125zm14.094-7.688h-7.688c-.708 0-1.282.574-1.282 1.282v7.688c0 .707.574 1.281 1.282 1.281h7.688a1.28 1.28 0 001.28-1.281V6.874c0-.708-.573-1.282-1.28-1.282zm-1.282 7.688h-5.125V8.155h5.125v5.125zm-24.345 5.126h-7.689a1.28 1.28 0 00-1.28 1.281v7.688c0 .708.573 1.282 1.28 1.282h7.689c.707 0 1.281-.574 1.281-1.282v-7.688c0-.707-.574-1.281-1.281-1.281zm-1.282 7.688H23.18v-5.126h5.125v5.126zM42.4 18.406h-7.688c-.708 0-1.281.574-1.281 1.281v7.688c0 .708.573 1.282 1.281 1.282H42.4c.708 0 1.282-.574 1.282-1.282v-7.688c0-.707-.574-1.281-1.282-1.281zm-1.281 7.688h-5.126v-5.126h5.126v5.126zm14.095-7.688h-7.688c-.708 0-1.282.574-1.282 1.281v7.688c0 .708.574 1.282 1.282 1.282h7.688c.707 0 1.28-.574 1.28-1.282v-7.688a1.28 1.28 0 00-1.28-1.281zm-1.282 7.688h-5.125v-5.126h5.125v5.126zM29.587 31.22h-7.689a1.28 1.28 0 00-1.28 1.28v7.689a1.28 1.28 0 001.28 1.281h7.689c.707 0 1.281-.574 1.281-1.281V32.5c0-.708-.574-1.282-1.281-1.282zm-1.282 7.687H23.18v-5.125h5.125v5.125zM42.4 31.22h-7.688a1.28 1.28 0 00-1.281 1.28v7.689c0 .707.573 1.281 1.281 1.281H42.4c.708 0 1.282-.574 1.282-1.281V32.5c0-.708-.574-1.282-1.282-1.282zm-1.281 7.687h-5.126v-5.125h5.126v5.125zm14.095-7.687h-7.688c-.708 0-1.282.573-1.282 1.28v7.689c0 .707.574 1.281 1.282 1.281h7.688a1.28 1.28 0 001.28-1.281V32.5c0-.708-.573-1.282-1.28-1.282zm-1.282 7.687h-5.125v-5.125h5.125v5.125zm-24.345 5.126h-7.689a1.28 1.28 0 00-1.28 1.281v7.688c0 .708.573 1.282 1.28 1.282h7.689c.707 0 1.281-.574 1.281-1.282v-7.688c0-.707-.574-1.281-1.281-1.281zm-1.282 7.688H23.18v-5.125h5.125v5.125zM42.4 44.033h-7.688c-.708 0-1.281.574-1.281 1.281v7.688c0 .708.573 1.282 1.281 1.282H42.4c.708 0 1.282-.574 1.282-1.282v-7.688c0-.707-.574-1.281-1.282-1.281zm-1.28 7.687h-5.126v-5.125h5.126v5.125zm14.094-7.687h-7.688c-.708 0-1.282.574-1.282 1.281v7.688c0 .708.574 1.282 1.282 1.282h7.688c.707 0 1.28-.574 1.28-1.282v-7.688a1.28 1.28 0 00-1.28-1.281zm-1.282 7.688h-5.125v-5.125h5.125v5.125z" fill="#53A3EB"/><path d="M7.803 24.813H6.522c-.708 0-1.282.573-1.282 1.28v1.282c0 .708.574 1.282 1.282 1.282h1.28c.709 0 1.282-.574 1.282-1.282v-1.281a1.28 1.28 0 00-1.281-1.281zm5.126 0h-1.281c-.708 0-1.282.573-1.282 1.28v1.282c0 .708.574 1.282 1.282 1.282h1.28c.708 0 1.282-.574 1.282-1.282v-1.281c0-.708-.574-1.281-1.281-1.281zm-5.126 5.125H6.522c-.708 0-1.282.574-1.282 1.281v1.282c0 .707.574 1.281 1.282 1.281h1.28c.709 0 1.282-.574 1.282-1.281v-1.282c0-.707-.573-1.281-1.281-1.281zm5.126 0h-1.281c-.708 0-1.282.574-1.282 1.281v1.282c0 .707.574 1.281 1.282 1.281h1.28c.708 0 1.282-.574 1.282-1.281v-1.282c0-.707-.574-1.281-1.281-1.281zm-5.126 5.125H6.522c-.708 0-1.282.574-1.282 1.282v1.281c0 .708.574 1.281 1.282 1.281h1.28a1.28 1.28 0 001.282-1.28v-1.282c0-.708-.573-1.282-1.281-1.282zm5.126 0h-1.281c-.708 0-1.282.574-1.282 1.282v1.281c0 .708.574 1.281 1.282 1.281h1.28c.708 0 1.282-.573 1.282-1.28v-1.282c0-.708-.574-1.282-1.281-1.282zm-5.126 5.126H6.522c-.708 0-1.282.574-1.282 1.281v1.282c0 .707.574 1.28 1.282 1.28h1.28a1.28 1.28 0 001.282-1.28V41.47c0-.707-.573-1.281-1.281-1.281zm5.126 0h-1.281c-.708 0-1.282.574-1.282 1.281v1.282c0 .707.574 1.28 1.282 1.28h1.28c.708 0 1.282-.573 1.282-1.28V41.47c0-.707-.574-1.281-1.281-1.281zm-5.126 5.125H6.522c-.708 0-1.282.574-1.282 1.282v1.28c0 .709.574 1.282 1.282 1.282h1.28c.709 0 1.282-.574 1.282-1.281v-1.282a1.28 1.28 0 00-1.281-1.28zm5.126 0h-1.281c-.708 0-1.282.574-1.282 1.282v1.28c0 .709.574 1.282 1.282 1.282h1.28c.708 0 1.282-.574 1.282-1.281v-1.282a1.28 1.28 0 00-1.281-1.28zM7.803 50.44H6.522c-.708 0-1.282.573-1.282 1.28v1.282c0 .708.574 1.282 1.282 1.282h1.28c.709 0 1.282-.574 1.282-1.282v-1.281a1.28 1.28 0 00-1.281-1.281zm5.126 0h-1.281c-.708 0-1.282.573-1.282 1.28v1.282c0 .708.574 1.282 1.282 1.282h1.28c.708 0 1.282-.574 1.282-1.282v-1.281c0-.708-.574-1.281-1.281-1.281zm-5.126 5.125H6.522c-.708 0-1.282.574-1.282 1.281v1.282c0 .707.574 1.281 1.282 1.281h1.28c.709 0 1.282-.574 1.282-1.281v-1.282c0-.707-.573-1.281-1.281-1.281zm5.126 0h-1.281c-.708 0-1.282.574-1.282 1.281v1.282c0 .707.574 1.281 1.282 1.281h1.28c.708 0 1.282-.574 1.282-1.281v-1.282c0-.707-.574-1.281-1.281-1.281zM7.803 60.69H6.522c-.708 0-1.282.574-1.282 1.282v1.281c0 .708.574 1.281 1.282 1.281h1.28a1.28 1.28 0 001.282-1.28v-1.282c0-.708-.573-1.282-1.281-1.282zm5.126 0h-1.281c-.708 0-1.282.574-1.282 1.282v1.281c0 .708.574 1.281 1.282 1.281h1.28c.708 0 1.282-.573 1.282-1.28v-1.282c0-.708-.574-1.282-1.281-1.282zm-5.126 5.126H6.522c-.708 0-1.282.573-1.282 1.281v1.281c0 .708.574 1.282 1.282 1.282h1.28c.709 0 1.282-.574 1.282-1.282v-1.28a1.28 1.28 0 00-1.281-1.282zm5.126 0h-1.281c-.708 0-1.282.573-1.282 1.281v1.281c0 .708.574 1.282 1.282 1.282h1.28c.708 0 1.282-.574 1.282-1.282v-1.28c0-.709-.574-1.282-1.281-1.282zM70.59 17.125h-5.126a1.28 1.28 0 00-1.281 1.28v5.126c0 .708.573 1.282 1.281 1.282h5.125c.708 0 1.282-.574 1.282-1.282v-5.125c0-.708-.574-1.281-1.282-1.281zm-1.282 5.125h-2.563v-2.563h2.563v2.563zm1.282 5.125h-5.126c-.708 0-1.281.574-1.281 1.282v5.125a1.28 1.28 0 001.281 1.281h5.125c.708 0 1.282-.573 1.282-1.281v-5.125c0-.708-.574-1.282-1.282-1.282zm-1.282 5.126h-2.563v-2.563h2.563V32.5zm1.282 5.125h-5.126c-.708 0-1.281.574-1.281 1.281v5.126c0 .707.573 1.281 1.281 1.281h5.125c.708 0 1.282-.574 1.282-1.281v-5.126c0-.707-.574-1.28-1.282-1.28zm-1.282 5.126h-2.563v-2.563h2.563v2.563zm1.282 5.125h-5.126c-.708 0-1.281.574-1.281 1.281v5.126c0 .707.573 1.28 1.281 1.28h5.125c.708 0 1.282-.573 1.282-1.28v-5.126c0-.707-.574-1.281-1.282-1.281zm-1.282 5.125h-2.563V50.44h2.563v2.563zm1.282 5.126h-5.126a1.28 1.28 0 00-1.281 1.281v5.125c0 .708.573 1.282 1.281 1.282h5.125c.708 0 1.282-.574 1.282-1.282V59.41c0-.708-.574-1.281-1.282-1.281zm-1.282 5.125h-2.563V60.69h2.563v2.563z" fill="#fff"/></svg>