<svg width="19" height="19" fill="none" xmlns="http://www.w3.org/2000/svg"><path fill-rule="evenodd" clip-rule="evenodd" d="M13.035.103h-7.34a5.416 5.416 0 00-5.41 5.41v7.34a5.416 5.416 0 005.41 5.41h7.34a5.416 5.416 0 005.41-5.41v-7.34a5.417 5.417 0 00-5.41-5.41zm3.584 12.75a3.583 3.583 0 01-3.584 3.584h-7.34a3.583 3.583 0 01-3.584-3.583V5.513A3.583 3.583 0 015.695 1.93h7.34a3.583 3.583 0 013.584 3.583v7.34zM4.668 9.184a4.702 4.702 0 014.697-4.696 4.702 4.702 0 014.697 4.697 4.702 4.702 0 01-4.697 4.697 4.703 4.703 0 01-4.697-4.697zm4.697 2.87a2.87 2.87 0 110-5.74 2.87 2.87 0 010 5.74zm5.832-7.534a1.126 1.126 0 11-2.251 0 1.126 1.126 0 012.25 0z" fill="#fff"/></svg>