<svg width="77" height="77" fill="none" xmlns="http://www.w3.org/2000/svg"><path d="M22.176 43.514h2.52v2.52h-2.52v-2.52zm5.04 0h2.52v2.52h-2.52v-2.52zm5.04 0h2.52v2.52h-2.52v-2.52zm-10.08 5.04h2.52v2.52h-2.52v-2.52zm5.04 0h2.52v2.52h-2.52v-2.52zm5.04 0h2.52v2.52h-2.52v-2.52zm5.04 0h2.52v2.52h-2.52v-2.52zm5.04 0h2.52v2.52h-2.52v-2.52zm-20.16 5.041h2.52v2.52h-2.52v-2.52zm5.04-.001h2.52v2.52h-2.52v-2.52zm5.04 0h2.52v2.52h-2.52v-2.52zm5.04 0h2.52v2.52h-2.52v-2.52zm5.04 0h2.52v2.52h-2.52v-2.52zm-20.16 5.041h2.52v2.52h-2.52v-2.52zm5.04 0h2.52v2.52h-2.52v-2.52zm5.04 0h2.52v2.52h-2.52v-2.52zm5.04 0h2.52v2.52h-2.52v-2.52zm5.04 0h2.52v2.52h-2.52v-2.52zm-20.16 5.039h2.52v2.52h-2.52v-2.52zm5.04 0h2.52v2.52h-2.52v-2.52zm5.04 0h2.52v2.52h-2.52v-2.52zm5.04 0h2.52v2.52h-2.52v-2.52zm5.04 0h2.52v2.52h-2.52v-2.52zm-20.16 5.04h2.52v2.52h-2.52v-2.52zm5.04 0h2.52v2.52h-2.52v-2.52zm5.04 0h2.52v2.52h-2.52v-2.52zm5.04 0h2.52v2.52h-2.52v-2.52zm5.04 0h2.52v2.52h-2.52v-2.52z" fill="#53A3EB"/><path d="M75.095 4.455h-8.82v-2.52a1.26 1.26 0 00-1.26-1.26h-12.6a1.26 1.26 0 00-1.26 1.26v2.52H2.016a1.26 1.26 0 00-1.26 1.26v5.04c0 .696.565 1.26 1.26 1.26h3.78v23.94c0 .696.565 1.26 1.26 1.26a1.26 1.26 0 11-1.26 1.26h-2.52c.005.922.347 1.81.965 2.496L1.008 45.28l.016.012a1.234 1.234 0 00-.268.744v5.04c0 .334.133.654.369.89l2.52 2.52c.236.237.557.37.89.37h5.04c.335 0 .655-.133.892-.37l2.52-2.52c.236-.236.369-.556.369-.89v-5.04c-.006-.27-.1-.532-.268-.744l.016-.012-3.232-4.308a3.756 3.756 0 00-1.556-6.06V12.014h42.84v1.26c0 .696.564 1.26 1.26 1.26h2.52v59.22h-5.04v-50.4h-2.52v5.04h-7.56v-2.52h-2.52v2.52h-7.56v-1.26h-2.52v1.26h-7.56v-3.78h16.38v-2.52h-16.38v-5.04h-2.52v56.7h-1.998l-5.931-5.93a1.26 1.26 0 00-1.782 0l-5.93 5.93h-.74v2.52h75.6v-2.52h-.982a3.745 3.745 0 00-1.815-6.154 3.78 3.78 0 10-7.005 0 3.745 3.745 0 00-1.815 6.153h-2.242v-59.22h2.52a1.26 1.26 0 001.26-1.26v-1.26h8.82a1.26 1.26 0 001.26-1.26v-5.04a1.26 1.26 0 00-1.26-1.26zm-67.41 37.8l1.89 2.52h-5.04l1.89-2.52h1.26zm3.15 8.298l-1.78 1.782H5.057l-1.782-1.782v-3.258h7.56v3.258zM69.679 6.975l-3.403 2.268V6.975h3.403zm-16.002-3.78h5.04v5.04h-5.04v-5.04zm-34.02 4.032l3.402 2.268h-6.805l3.403-2.268zm-7.56 2.016L8.694 6.975h6.804l-3.402 2.268zm11.718-2.268h6.804l-3.402 2.268-3.402-2.268zm10.962.252l3.402 2.268h-6.805l3.403-2.268zm4.157-.252h6.805l-3.402 2.268-3.403-2.268zm-35.657 0h.882l3.78 2.52H3.276v-2.52zm43.217 2.52l3.78-2.52h.883v2.52h-4.663zm13.482 60.102l-2.267-3.403 2.267-3.401v6.804zm0-30.24l-2.267-3.402 2.267-3.402v6.804zm-2.52.756l2.268 3.401-2.267 3.403v-6.804zm0-8.316v-6.804l2.268 3.402-2.267 3.402zm0 23.436l2.268 3.401-2.267 3.403v-6.804zm2.52-.764l-2.267-3.395 2.267-3.401v6.796zm-2.267-33.634l2.267-3.402v6.804l-2.267-3.402zm-.252-4.158v-2.142h1.426l-1.426 2.142zm-10.08 14.238v12.6h-7.56v-12.6h7.56zm-10.08 0V41.75l-2.898-2.864a1.263 1.263 0 00-.882-.364h-3.78v-7.608h7.56zm-10.08 0v2.1h-7.56v-2.1h7.56zm-18.9 39.581l3.258 3.258H5.058l3.258-3.258zm11.34 3.258V35.535h7.56v4.253c0 .696.564 1.26 1.26 1.26h4.522l4.675 4.623c.235.232.552.363.883.364h8.82v27.72h-27.72zm37.8-3.401l2.267 3.401h-2.267v-3.401zm15.12 2.141a1.26 1.26 0 11-.001-2.519 1.26 1.26 0 010 2.52zm-2.52-7.56a1.26 1.26 0 110 2.52 1.26 1.26 0 010-2.52zm-2.52 5.04a1.26 1.26 0 110 2.52 1.26 1.26 0 010-2.52zm-3.78-57.96h-10.08v-1.26h6.3a1.26 1.26 0 001.26-1.26v-6.3h2.52v8.82zm6.677-2.52l3.402-2.267v2.268h-3.402z" fill="#fff"/></svg>