<svg width="70" height="77" fill="none" xmlns="http://www.w3.org/2000/svg"><path d="M16.12 29.615a19.12 19.12 0 009.456 18.904 6.296 6.296 0 013.123 5.465 3.435 3.435 0 003.425 3.425h5.872a3.427 3.427 0 003.423-3.423 6.476 6.476 0 013.253-5.542A19.081 19.081 0 1016.12 29.618v-.003zm18.963-14.183A16.345 16.345 0 0146.08 19.64a16.537 16.537 0 01-2.69 26.61 9.032 9.032 0 00-4.514 7.736.88.88 0 01-.879.879h-5.872a.89.89 0 01-.88-.881 8.849 8.849 0 00-4.402-7.672 16.536 16.536 0 016.31-30.772 17.156 17.156 0 011.931-.108z" fill="#fff"/><path d="M35.06 20.52c6.32.007 11.442 5.128 11.448 11.449a1.272 1.272 0 002.544 0c-.008-7.725-6.268-13.984-13.992-13.993a1.272 1.272 0 000 2.544z" fill="#53A3EB"/><path d="M39.99 61.215a1.272 1.272 0 00.314-2.524L30.13 57.419a1.273 1.273 0 10-.316 2.524l10.178 1.272zM29.814 63.76l10.177 1.271a1.272 1.272 0 00.314-2.524l-10.176-1.272a1.273 1.273 0 10-.316 2.524h.002zm0 3.815l10.177 1.272a1.272 1.272 0 00.314-2.524l-10.176-1.272a1.273 1.273 0 10-.316 2.524h.002z" fill="#fff"/><path d="M28.7 73.945c0 .584.396 1.092.962 1.235l5.088 1.271c.203.05.416.05.619 0l5.088-1.271c.566-.143.962-.651.962-1.235V70.13c0-.702-.57-1.272-1.272-1.272H29.971c-.702 0-1.272.57-1.272 1.272v3.816zm2.543-2.544h7.632v1.551l-3.816.954-3.816-.954v-1.55zm5.089-62.329V1.44a1.272 1.272 0 00-2.544 0v7.632a1.272 1.272 0 002.544 0zm21.215 1.155l-5.398 5.396a1.273 1.273 0 101.799 1.799l5.397-5.397a1.27 1.27 0 10-1.798-1.798zM68.13 35.785a1.272 1.272 0 000-2.544H60.5a1.272 1.272 0 000 2.544h7.632zm-8.785 23.013a1.27 1.27 0 000-1.798l-5.397-5.396a1.273 1.273 0 00-2.146.561c-.116.445.016.918.347 1.237l5.398 5.396a1.27 1.27 0 001.798 0zm-43.174-7.194L10.774 57a1.271 1.271 0 101.798 1.798l5.398-5.396a1.272 1.272 0 00-1.799-1.798zM1.987 33.24a1.272 1.272 0 000 2.545h7.632a1.272 1.272 0 000-2.544H1.987zm10.585-23.013a1.271 1.271 0 10-1.798 1.798l5.397 5.397a1.272 1.272 0 001.799-1.8l-5.398-5.395z" fill="#fff"/><path d="M26.746 38.175a10.94 10.94 0 013.226 7.786 1.272 1.272 0 002.544 0 13.452 13.452 0 00-3.307-8.88l.89-.89a4.877 4.877 0 004.961-.07 4.876 4.876 0 004.968.07l.891.891a13.456 13.456 0 00-3.315 8.879 1.272 1.272 0 002.544 0 10.942 10.942 0 013.227-7.788l.218-.218c.496-.497.496-1.3 0-1.798l-2.544-2.544a1.273 1.273 0 00-1.799 0 2.33 2.33 0 01-3.29 0 1.273 1.273 0 00-1.798 0 2.33 2.33 0 01-3.29 0 1.273 1.273 0 00-1.798 0l-2.544 2.544a1.272 1.272 0 000 1.798l.216.22z" fill="#53A3EB"/></svg>