<svg width="76" height="80" fill="none" xmlns="http://www.w3.org/2000/svg"><path d="M48.583 49.489h4.585a2.593 2.593 0 002.59-2.59v-2.556c0-.15.107-.281.265-.325a19.41 19.41 0 004.556-1.892c.13-.075.283-.06.38.037l1.826 1.825a2.57 2.57 0 001.831.759c.691 0 1.342-.27 1.831-.759l3.242-3.242a2.57 2.57 0 00.759-1.83c0-.693-.27-1.343-.759-1.832l-1.824-1.825a.31.31 0 01-.038-.38 19.431 19.431 0 001.892-4.557.343.343 0 01.325-.265H72.6a2.593 2.593 0 002.59-2.59v-4.584a2.593 2.593 0 00-2.59-2.59h-2.556a.343.343 0 01-.325-.265 19.429 19.429 0 00-1.893-4.556c-.074-.13-.06-.284.038-.38l1.825-1.826a2.57 2.57 0 00.759-1.831c0-.692-.27-1.342-.759-1.831l-3.242-3.242a2.572 2.572 0 00-1.831-.759c-.692 0-1.343.27-1.832.76L60.96 8.186c-.097.097-.25.112-.38.037a19.43 19.43 0 00-4.556-1.892.343.343 0 01-.265-.325V3.45a2.593 2.593 0 00-2.59-2.59h-4.585a2.593 2.593 0 00-2.59 2.59v2.556c0 .15-.106.281-.264.324a19.446 19.446 0 00-4.556 1.893.313.313 0 01-.381-.037l-1.825-1.825a2.589 2.589 0 00-3.663 0l-.343.343c-1.07 1.07.548 2.692 1.62 1.62.211-.183.482-.628.766-.343l1.826 1.824a2.61 2.61 0 003.14.405 17.163 17.163 0 014.018-1.67 2.642 2.642 0 001.954-2.535V3.451a.3.3 0 01.299-.3h4.585a.3.3 0 01.299.3v2.556c0 1.179.803 2.221 1.953 2.535a17.12 17.12 0 014.019 1.669 2.61 2.61 0 003.14-.405l1.824-1.824a.293.293 0 01.212-.088.29.29 0 01.211.088l3.243 3.242a.294.294 0 01.087.21c0 .057-.015.14-.087.213l-1.826 1.825a2.61 2.61 0 00-.404 3.14 17.174 17.174 0 011.67 4.018 2.64 2.64 0 002.534 1.953H72.6a.3.3 0 01.299.3v4.584a.3.3 0 01-.3.3h-2.555a2.642 2.642 0 00-2.535 1.953 17.126 17.126 0 01-1.669 4.018 2.61 2.61 0 00.404 3.14l1.825 1.825a.292.292 0 01.088.212.296.296 0 01-.088.212l-3.242 3.241a.299.299 0 01-.423 0l-1.825-1.824a2.61 2.61 0 00-3.14-.405 17.148 17.148 0 01-4.019 1.67 2.642 2.642 0 00-1.953 2.535v2.555a.3.3 0 01-.299.3h-4.585a.3.3 0 01-.299-.3v-2.555a2.64 2.64 0 00-1.953-2.535c-1.464-.399-2.064 1.811-.603 2.21a.343.343 0 01.265.325v2.555a2.593 2.593 0 002.59 2.59z" fill="#53A3EB"/><path d="M61.67 25.175c0-7.573-7.615-12.764-14.632-10.09-1.414.539-.601 2.68.816 2.14 5.538-2.111 11.526 2 11.526 7.95 0 4.84-4.077 8.778-9.012 8.489-1.509-.092-1.65 2.197-.135 2.287 6.224.366 11.437-4.597 11.437-10.776z" fill="#53A3EB"/><path d="M11.812 51.719l11.604-2.257v-2.867c-3.259-2.223-5.023-5.371-5.407-8.907a3.293 3.293 0 01-3.027-3.279v-2.353c-2.758-1.2-2.385-5.224.532-5.903v-.908c0-8.168 6.622-14.79 14.789-14.79h1.24c8.168 0 14.789 6.622 14.789 14.79v.908c2.916.678 3.29 4.704.532 5.903v2.353a3.293 3.293 0 01-3.027 3.279c-.335 3.085-1.78 5.909-4.062 7.872a15.05 15.05 0 01-1.345 1.035v2.867l11.604 2.257c6.123 1.19 10.895 4.642 10.895 11.01v11.649a4.667 4.667 0 01-4.667 4.667H5.584a4.667 4.667 0 01-4.667-4.667V62.729c0-6.347 4.743-9.814 10.895-11.01zm9.532.48c.832 1.209 2.103 3.054 3.476 5.042.56.81 1.563.914 1.956.679l1.809-1.085c-1.764-1.043-4.206-2.832-4.947-5.083l-2.294.447zm9.58 3.3c1.739-.876 5.206-3.04 5.216-5.084V47.86a13.152 13.152 0 01-10.434 0v2.546c0 2.049 3.476 4.217 5.217 5.093zM44.04 25.244c0-4.698-2.605-8.799-6.447-10.933v1.436c0 1.514-2.29 1.516-2.29 0v-2.423a12.415 12.415 0 00-3.235-.567v5.663c0 1.514-2.291 1.517-2.291 0v-5.663a12.421 12.421 0 00-3.235.567v2.423c0 1.514-2.29 1.516-2.29 0V14.31c-3.843 2.134-6.448 6.235-6.448 10.933v.828H44.04v-.828zm1.584 3.119H16.22c-1.097 0-1.096 1.659 0 1.659h29.403c1.099 0 1.097-1.66 0-1.66zm-4.005 8.165a1.145 1.145 0 011.145-1.12c.19-.048 1.809.297 1.809-.999v-2.096h-27.3v2.096c0 1.294 1.66.962 1.809.998.622 0 1.131.498 1.145 1.121.061 2.863 1.278 5.523 3.338 7.296 4.374 3.767 10.342 3.767 14.716 0 2.06-1.773 3.277-4.433 3.339-7.296zm-3.412 15.224c-.741 2.251-3.182 4.04-4.947 5.083 1.813.97 1.685 1.261 2.509 1.164a1.806 1.806 0 001.266-.771c1.37-1.983 2.636-3.823 3.466-5.03l-2.294-.446zm13.214 25.002h4.84a2.377 2.377 0 002.377-2.376V62.729c0-3.432-1.56-5.805-4.98-7.444-.138.61-2.237 6.305-2.237 14.264v7.205zm-19.353 0h17.063V69.55c0-8.623 2.177-14.176 2.391-15.116-1.337-.444-.344-.102-8.569-1.758-2.364 3.435-6.776 9.845-9.376 13.541a8.242 8.242 0 00-1.51 4.769v5.77zm-1.146-10.56c.228-.446.489-.88.781-1.295.88-1.25 2.02-2.889 3.211-4.607a3.431 3.431 0 01-1.023-.408l-2.969-1.78-2.97 1.78c-.322.194-.668.33-1.022.408a903.87 903.87 0 003.21 4.607c.294.416.554.849.782 1.296zM3.208 74.379a2.376 2.376 0 002.376 2.376h4.84v-4.32c0-1.514 2.29-1.517 2.29 0v4.32h17.064v-5.77a8.244 8.244 0 00-1.51-4.767 2166.644 2166.644 0 01-9.376-13.542c-8.22 1.656-7.23 1.313-8.569 1.758.167.705 2.094 5.942 2.36 13.372.055 1.518-2.234 1.592-2.289.083-.257-7.19-2.021-11.817-2.207-12.603-3.42 1.639-4.98 4.012-4.98 7.444v11.649z" fill="#fff"/></svg>