<svg width="68" height="77" fill="none" xmlns="http://www.w3.org/2000/svg"><path d="M56.066 74.88V6.596c0-.698-.566-1.264-1.265-1.264H35.124L34.4.272H22.092l-.723 5.059H1.69c-.698 0-1.264.566-1.264 1.264v68.286c0 .698.566 1.264 1.264 1.264h53.111c.699 0 1.265-.566 1.265-1.264zM23.06 11.34l1.223-8.538h7.923l1.221 8.539 7.463 2.489v1.617H15.6V13.83l7.46-2.49zm25.417 1.578V58.44H38.362v10.117H8.013v-55.64h5.058v5.058h30.35v-5.058h5.057zM46.69 60.97l-5.799 5.799v-5.8h5.8zm6.847 12.645H2.955V7.86h18.052l-.222 1.577-2.86.952H5.483v60.698H40.15L51.008 60.23V10.389h-12.44l-2.861-.952-.223-1.577h18.053v65.756zm8.889-7.279a1.265 1.265 0 002.454 0l2.529-10.116c.01-.043 0-.087 0-.127.017-.059.03-.12.038-.18V9.123c0-.698-.567-1.264-1.265-1.264h-5.058c-.698 0-1.265.566-1.265 1.264v46.788c.008.06.02.12.036.179.006.042-.008.086 0 .126l2.531 10.12zm2.492-11.688h-2.53V17.976h2.53v36.672zm-1.265 6.167l-.91-3.638h1.82l-.91 3.638zm-1.264-50.426h2.529v5.058h-2.53v-5.058z" fill="#fff"/><path d="M16.865 20.505h-5.058c-.699 0-1.265.566-1.265 1.265v5.058c0 .698.566 1.264 1.264 1.264h5.059c.698 0 1.264-.566 1.264-1.264V21.77c0-.699-.566-1.265-1.264-1.265zM15.6 25.563h-2.529v-2.529h2.53v2.53zm1.265 5.059h-5.058c-.699 0-1.265.566-1.265 1.264v5.058c0 .698.566 1.265 1.264 1.265h5.059c.698 0 1.264-.567 1.264-1.265v-5.058c0-.698-.566-1.264-1.264-1.264zM15.6 35.68h-2.529v-2.53h2.53v2.53zm1.265 5.058h-5.058c-.699 0-1.265.566-1.265 1.264v5.058c0 .699.566 1.265 1.264 1.265h5.059c.698 0 1.264-.566 1.264-1.265v-5.058c0-.698-.566-1.264-1.264-1.264zM15.6 45.796h-2.529v-2.53h2.53v2.53zm1.265 5.058h-5.058c-.699 0-1.265.566-1.265 1.265v5.058c0 .698.566 1.264 1.264 1.264h5.059c.698 0 1.264-.566 1.264-1.264v-5.058c0-.699-.566-1.265-1.264-1.265zM15.6 55.912h-2.529v-2.529h2.53v2.53zm5.058-35.407h21.498v2.53H20.658v-2.53zm0 5.058h7.587v2.53h-7.587v-2.53zm0 5.059h21.498v2.529H20.658v-2.53zm0 5.058h7.587v2.529h-7.587v-2.53zm0 5.058h21.498v2.529H20.658v-2.53zm0 5.058h7.587v2.53h-7.587v-2.53zm0 5.058h21.498v2.53H20.658v-2.53zm0 5.058h7.587v2.53h-7.587v-2.53z" fill="#53A3EB"/></svg>