<svg width="19" height="17" fill="none" xmlns="http://www.w3.org/2000/svg"><path fill-rule="evenodd" clip-rule="evenodd" d="M16.761 2.633A4.03 4.03 0 0018.475.399a7.625 7.625 0 01-2.476.98A3.829 3.829 0 0013.154.102c-2.153 0-3.899 1.808-3.899 4.039 0 .317.036.625.102.92-3.24-.167-6.111-1.776-8.034-4.22a4.123 4.123 0 00-.527 2.031c0 1.401.688 2.638 1.734 3.361A3.763 3.763 0 01.765 5.73v.052c0 1.956 1.342 3.588 3.126 3.96a3.764 3.764 0 01-1.76.069c.496 1.604 1.935 2.772 3.641 2.805A7.658 7.658 0 010 14.288a10.752 10.752 0 005.976 1.814c7.17 0 11.09-6.154 11.09-11.492 0-.176-.004-.348-.01-.522A8.089 8.089 0 0019 1.998a7.64 7.64 0 01-2.239.635z" fill="#fff"/></svg>