<svg width="23" height="15" fill="none" xmlns="http://www.w3.org/2000/svg"><path d="M19.797 8.995c.79.771 1.542 1.584 2.253 2.435.31.385.581.804.807 1.25.31.645.03 1.356-.51 1.395h-3.35a2.455 2.455 0 01-1.174-.2 2.544 2.544 0 01-.96-.732c-.464-.507-.893-1.048-1.34-1.572a3.259 3.259 0 00-.602-.576.662.662 0 00-.93 0 .722.722 0 00-.187.29 4.018 4.018 0 00-.353 1.68c-.036.848-.274 1.071-1.067 1.11a8.081 8.081 0 01-4.795-1.11A10.945 10.945 0 014.363 9.72 44.696 44.696 0 01.116 1.59C-.152.948.046.604.702.59a81.831 81.831 0 013.28 0 .944.944 0 01.57.21c.164.13.283.313.34.52a22.414 22.414 0 002.223 4.427 3.7 3.7 0 00.84.992c.389.286.686.19.869-.274.109-.298.174-.61.193-.928.1-1.084.082-2.176-.056-3.255a1.37 1.37 0 00-.33-.815 1.272 1.272 0 00-.745-.424C7.566.98 7.61.851 7.768.654A1.22 1.22 0 018.214.24c.18-.096.381-.143.583-.137h3.787c.595.126.73.414.81 1.059l.004 4.52c-.006.25.116.99.534 1.155.335.117.556-.17.757-.399a14.16 14.16 0 002.132-3.523c.256-.556.477-1.134.69-1.712a.848.848 0 01.319-.476.788.788 0 01.538-.151l3.645.004c.107-.003.214.004.32.02.614.113.782.397.594 1.041a9.978 9.978 0 01-1.449 2.7c-.607.905-1.258 1.776-1.86 2.685-.554.83-.51 1.249.178 1.97h.001z" fill="#fff"/></svg>